<?xml version="1.0" encoding="UTF-8"?>
<svg xmlns="http://www.w3.org/2000/svg" xmlns:svg="http://www.w3.org/2000/svg" xmlns:sodipodi="http://sodipodi.sourceforge.net/DTD/sodipodi-0.dtd" xmlns:rdf="http://www.w3.org/1999/02/22-rdf-syntax-ns#" xmlns:inkscape="http://www.inkscape.org/namespaces/inkscape" xmlns:dc="http://purl.org/dc/elements/1.1/" xmlns:cc="http://creativecommons.org/ns#" version="1.1" viewBox="0 0 165.22 183.88">
  <!-- Generator: Adobe Illustrator 29.8.4, SVG Export Plug-In . SVG Version: 2.1.1 Build 6)  -->
  <defs>
    <style>
      .st0 {
        fill: #f1f1f1;
      }

      .st1 {
        fill: #0f46ae;
      }

      .st2 {
        fill: #da0f18;
      }

      .st3, .st4 {
        fill-rule: evenodd;
      }

      .st3, .st5, .st6, .st7 {
        fill: #fff;
      }

      .st8 {
        fill-opacity: .18;
        stroke: #fff;
      }

      .st8, .st9 {
        stroke-width: .28px;
      }

      .st8, .st9, .st10, .st5, .st11 {
        stroke-opacity: 0;
      }

      .st9, .st10 {
        fill: #ccc;
      }

      .st9, .st10, .st5, .st11 {
        stroke: #000;
      }

      .st5 {
        fill-opacity: .5;
      }

      .st5, .st11 {
        stroke-width: 1.04px;
      }

      .st7 {
        fill-opacity: .46;
      }

      .st12 {
        fill: #fbdd06;
      }

      .st11 {
        fill-opacity: .29;
      }
    </style>
  </defs>
  <g id="svg10620" inkscape:version="0.48.4 r9939" sodipodi:docname="Nieuw document 14">
    <sodipodi:namedview id="base" bordercolor="#666666" borderopacity="1.0" fit-margin-bottom="0" fit-margin-left="0" fit-margin-right="0" fit-margin-top="0" inkscape:current-layer="layer1" inkscape:cx="36.775355" inkscape:cy="60.509915" inkscape:document-units="px" inkscape:pageopacity="0.0" inkscape:pageshadow="2" inkscape:window-height="837" inkscape:window-maximized="1" inkscape:window-width="1600" inkscape:window-x="-8" inkscape:window-y="-8" inkscape:zoom="1.979899" pagecolor="#ffffff" showgrid="false"/>
    <path id="path2836" class="st12" d="M82.53,1.31l-81.23-.02v102.91c.45,33.97,25.23,78.95,81.23,79.2V1.31Z" inkscape:connector-curvature="0" sodipodi:nodetypes="ccccc"/>
    <path id="path2836-5" class="st12" d="M82.53,1.3l80.48.12.83,102.77c-.45,33.97-25.31,78.95-81.31,79.2-8.3-59.72-14.04-119.73,0-182.08h0Z" inkscape:connector-curvature="0" sodipodi:nodetypes="ccccc"/>
    <rect id="rect19629" class="st1" x="1.29" y="1.25" width="162.08" height="56.16"/>
    <rect id="rect19649" class="st5" x="1.23" y="57.37" width="162.22" height="1.57"/>
    <rect id="rect19649-4" class="st11" x="1.27" y="55.81" width="162.22" height="1.57"/>
    <path id="path20179-3" class="st2" d="M82.03,62.81c-3.87.15-6.6,1.81-6.72,6.89l-.35,6.72c-7.57.96-15.59.62-9.37-5.3,7.09-5.31,2.61-10.76-8-6.72-10.79,2.75-38.41,2.81-45.38-5.3-.8,14.02,23.98,9.55,38.18,12.73-12.4,1.32-25.17,4.87-37.12,3.54,2.62,6.76,18.96,3.36,32.35,2.12-7.8,3.37-15.59,6.73-23.16,6.19,5.86,7.44,22.43,1.11,35.13-1.24,0,0-14.67,5.78-15.15,6.54-2.31,3.61,21.75.05,24.93-3.36l-3.89,5.95c3.81-.08,7.63-.55,11.67-6.65l1.24,39.6c-6.06-.76-11.64-.94-18.79-3.01-9.65-1.19-11.08-9.93-2.6-10.43,4.95,2.38,9.07,1.73,12.6-1.07l-7.81-1.19.81-.94,6.25-.31,1.69,1.31,1.81-.19h.56l.69.38,1.19,1.75-.38-1.69-.88-1.19.56-.56.5-1.56-.94,1.12-1.38.94h-1.31l-1.19-1.25-6.25.25,4-1.81c1.1-1.24,7.41-2.36-.44-3.81-4.55-1.45-7.35-1.15-9.56-.25-13.77-.2-27.86,12.7-10.69,22.88l15.88,6.75c-14.53,1.68-19.9,15.92-6.75,25.62,6.08,3.11,12.06,6.1,16.5,7.25-3.72,1.43-7.5,2.76-10.25,6.12-5.14,7.14,1.06,7.67,3.62,4.12,6.51-5.27,10.31-6.32,13.88-7l.5,10.5,3.82.25,1.43-48.62-6,1.12.12,31.75c-17.5-6.64-26.93-14.17-14.25-24.12,4.07-2.06,8.89-3.35,14.62-3.74l4.07-5.01,1.64,1.06-1.64-67.13Z" inkscape:connector-curvature="0" sodipodi:nodetypes="cccccccccccscccccccccccccccccccccccccccccccccccccccccccc"/>
    <path id="path20179-5-1" class="st2" d="M81.99,62.8c3.87.15,6.6,1.81,6.72,6.89l.35,6.72c7.57.96,15.59.62,9.37-5.3-7.09-5.31-2.61-10.76,8-6.72,10.79,2.75,38.41,2.81,45.38-5.3.8,14.02-23.98,9.55-38.18,12.73,12.4,1.32,25.17,4.87,37.12,3.54-5.52,4.5-20.14,2.44-32.35,2.12,7.8,3.37,15.59,6.73,23.16,6.19-6,5.76-22.53-.01-35.13-1.24,0,0,14.67,5.78,15.15,6.54,2.31,3.61-21.75.05-24.93-3.36l3.89,5.95c-3.81-.08-7.63-.55-11.67-6.65l-1.24,39.6c6.06-.76,11.64-.94,18.79-3.01,9.65-1.19,11.08-9.93,2.6-10.43-4.95,2.38-9.07,1.73-12.6-1.07l7.81-1.19-.81-.94-6.25-.31-1.69,1.31-1.81-.19h-.56l-.69.38-1.19,1.75.38-1.69.88-1.19-.56-.56-.5-1.56.94,1.12,1.38.94h1.31l1.19-1.25,6.25.25-4-1.81c-1.1-1.24-7.41-2.36.44-3.81,4.55-1.45,7.35-1.15,9.56-.25,13.77-.2,27.86,12.7,10.69,22.88l-15.88,6.75c14.53,1.68,19.9,15.92,6.75,25.62-6.08,3.11-12.06,6.1-16.5,7.25,3.72,1.43,7.5,2.76,10.25,6.12,5.14,7.14-1.06,7.67-3.62,4.12-6.51-5.27-10.31-6.32-13.88-7l-.5,10.5-3.82.25-1.43-48.62,6,1.12-.12,31.75c17.5-6.64,26.93-14.17,14.25-24.12-4.07-2.06-8.89-3.35-14.62-3.74l-4.07-5.01-1.64,1.06,1.64-67.13Z" inkscape:connector-curvature="0" sodipodi:nodetypes="cccccccccccscccccccccccccccccccccccccccccccccccccccccccc"/>
    <path id="path54895" class="st8" d="M27.8,44.64c14.12,9.82,43.34-10.97,19.67-31.37,15.88,16.81-1.17,36.28-19.67,31.37Z" inkscape:connector-curvature="0" sodipodi:nodetypes="ccc"/>
    <path id="path54897" class="st9" d="M17.47,18.77c4.29-9.7,18.85-13.73,29.21-5.72-12.43-6.79-23.56-2.96-29.21,5.72Z" inkscape:connector-curvature="0" sodipodi:nodetypes="ccc"/>
    <path class="st0" d="M37.66,9.3c-7.48-1.1-14.55,1.72-18.76,6.8,2.98-1.73,6.73-2.51,10.64-1.94,8.29,1.22,14.15,8.02,13.09,15.19s-8.63,12-16.91,10.78c-2.88-.42-5.46-1.53-7.57-3.09,3.07,4.43,8.12,7.7,14.17,8.59,10.98,1.61,21.08-5.21,22.55-15.24s-6.23-19.47-17.21-21.08Z"/>
    <path id="path20630" class="st10" d="M33.25,15.15c4.36,1,7.35,3.46,8.85,6.57,1.36,2.82,1.53,6.64.22,10.06-2.31,6-10.61,13.22-23.63,5.87,18.45,11.07,34.28-14.89,14.57-22.5Z" inkscape:connector-curvature="0" sodipodi:nodetypes="csscc"/>
    <path id="path4875-2-6-9-5-6" class="st6" d="M58.12,103.29c.5.89.46,2.14.03,2.63-1.48-.97-3.05-.73-4.59-.87,1.26-1.23,2.84-2.09,4.56-1.77h0Z" inkscape:connector-curvature="0" sodipodi:nodetypes="cccc"/>
    <path id="path4877-0-6-4-1-2" class="st4" d="M56.91,104.3c-.02.61.31,1.17.73,1.25s.78-.34.8-.95-.31-1.17-.73-1.25-.78.34-.8.95Z" sodipodi:cx="5055.4663" sodipodi:cy="-4490.8501" sodipodi:rx="5.1454644" sodipodi:ry="8.7125654" sodipodi:type="arc"/>
    <path id="path4879-9-18-7-7-8" class="st3" d="M57.67,104.19c0,.2.09.38.22.4s.24-.11.25-.31-.09-.38-.22-.4-.24.11-.25.31Z" sodipodi:cx="5053.0356" sodipodi:cy="-4492.4282" sodipodi:rx="2.1465743" sodipodi:ry="2.7779195" sodipodi:type="arc"/>
    <path id="path4883-3-9-3-0-3" class="st7" d="M58.61,106.87c-.44-1.57-1.69-1.19-2.89-.94,1.13,0,2.35-.18,2.89.94Z" inkscape:connector-curvature="0" sodipodi:nodetypes="ccc"/>
    <path id="path4875-2-6-9-5-6-8" class="st6" d="M103.83,102.85c-.5.89-.46,2.14-.03,2.63,1.48-.97,3.05-.73,4.59-.87-1.26-1.23-2.84-2.09-4.56-1.77h0Z" inkscape:connector-curvature="0" sodipodi:nodetypes="cccc"/>
    <path id="path4877-0-6-4-1-2-2" class="st4" d="M105.03,103.86c.02.61-.31,1.17-.73,1.25s-.78-.34-.8-.95.31-1.17.73-1.25.78.34.8.95Z" sodipodi:cx="5055.4663" sodipodi:cy="-4490.8501" sodipodi:rx="5.1454644" sodipodi:ry="8.7125654" sodipodi:type="arc"/>
    <path id="path4879-9-18-7-7-8-0" class="st3" d="M104.27,103.75c0,.2-.09.38-.22.4s-.24-.11-.25-.31.09-.38.22-.4.24.11.25.31Z" sodipodi:cx="5053.0356" sodipodi:cy="-4492.4282" sodipodi:rx="2.1465743" sodipodi:ry="2.7779195" sodipodi:type="arc"/>
    <path id="path4883-3-9-3-0-3-5" class="st7" d="M103.33,106.43c.44-1.57,1.69-1.19,2.89-.94-1.13,0-2.35-.18-2.89.94Z" inkscape:connector-curvature="0" sodipodi:nodetypes="ccc"/>
  </g>
</svg>